# Blender v2.73 (sub 0) OBJ File: ''
# www.blender.org
o 2
v -0.165440 0.801728 -0.200484
v -0.132959 0.903984 -0.160776
v 0.045489 0.903985 -0.200484
v 0.057081 0.801728 -0.250000
v -0.074431 0.025256 -0.089224
v -0.132959 0.096020 -0.160776
v 0.045489 0.096020 -0.200485
v 0.024601 0.025256 -0.111260
v -0.074431 0.974748 -0.089224
v 0.024601 0.974748 -0.111260
v -0.165440 0.198277 -0.200485
v 0.057081 0.198277 -0.250000
v 0.104017 0.974748 -0.049515
v 0.188593 0.903984 -0.089224
v 0.235529 0.198277 -0.111260
v 0.188593 0.096020 -0.089224
v 0.235529 0.801728 -0.111260
v 0.104017 0.025256 -0.049515
v 0.235529 0.801728 0.111261
v 0.235529 0.198277 0.111260
v 0.188593 0.903984 0.089224
v 0.188593 0.096020 0.089224
v 0.104017 0.025256 0.049515
v 0.104017 0.974748 0.049516
v 0.045489 0.096020 0.200485
v 0.024601 0.025256 0.111260
v 0.024601 0.974748 0.111261
v 0.045489 0.903984 0.200485
v 0.057081 0.198277 0.250000
v 0.057081 0.801728 0.250000
v -0.165440 0.801728 0.200485
v -0.165440 0.198277 0.200485
v -0.132959 0.903984 0.160776
v -0.132959 0.096020 0.160776
v -0.074431 0.025256 0.089224
v -0.074431 0.974748 0.089224
v -0.118504 0.974748 0.000000
v -0.212376 0.903984 0.000000
v -0.264471 0.198277 0.000000
v -0.212376 0.096020 0.000000
v -0.001447 0.000000 0.000000
v -0.118504 0.025256 0.000000
v -0.264471 0.801726 0.000000
v -0.001447 1.000000 0.000000
v -0.264471 0.801726 0.000000
vt 0.540502 0.000000
vt 0.686470 0.000000
vt 0.704495 0.085511
vt 0.111155 0.904481
vt 0.063321 0.967262
vt 0.000000 0.837275
vt 0.426274 0.769345
vt 0.391180 0.841389
vt 0.319701 0.837062
vt 0.540502 0.675654
vt 0.522477 0.590143
vt 0.704495 0.590143
vt 0.522477 0.085511
vt 0.426274 0.913693
vt 0.000000 0.590143
vt 0.113486 0.590143
vt 0.131512 0.675654
vt 0.000000 0.085511
vt 0.113486 0.085511
vt 0.040503 0.000000
vt 0.131512 0.000000
vt 0.063320 0.707497
vt 0.111155 0.760323
vt 0.295504 0.085511
vt 0.295504 0.590143
vt 0.277479 0.000000
vt 0.205601 0.675654
vt 0.190114 0.742652
vt 0.505130 0.931812
vt 0.525032 1.000000
vt 0.277479 0.675654
vt 0.319701 0.765725
vt 0.568368 0.882102
vt 0.638983 0.910425
vt 0.408991 0.590143
vt 0.408991 0.085511
vt 0.368488 0.000000
vt 0.886514 0.085511
vt 0.886514 0.590143
vt 0.722521 0.000000
vt 0.868488 0.000000
vt 0.319701 0.909883
vt 0.253435 0.872639
vt 0.568368 0.801995
vt 0.868488 0.675654
vt 0.638983 0.766078
vt 0.505130 0.751814
vt 1.000000 0.590143
vt 0.959497 0.675654
vt 0.169763 0.830694
vt 0.190115 0.922414
vt 0.449494 0.000000
vt 0.205601 0.999575
vt 0.382939 0.707245
vt 0.449494 0.675654
vt 0.483222 0.843180
vt 0.076015 0.832344
vt 0.253435 0.792637
vt 0.959497 0.000000
vt 1.000000 0.085513
vt 0.686470 0.675654
vt 0.382938 0.967350
vt 0.040503 0.675654
vt 0.368488 0.675654
vt 0.722521 0.675654
vt 0.525033 0.675654
vn -0.198200 0.408900 -0.890800
vn -0.141400 -0.759300 -0.635300
vn -0.141400 0.759300 -0.635300
vn -0.198200 -0.408900 -0.890800
vn -0.217200 0.000000 -0.976100
vn 0.397500 0.762000 -0.511300
vn 0.559300 -0.411800 -0.719400
vn 0.613800 0.000000 -0.789500
vn 0.559300 0.411800 -0.719400
vn 0.397500 -0.762000 -0.511300
vn 1.000000 -0.000000 0.000000
vn 0.908800 0.417200 0.000000
vn 0.641700 -0.767000 -0.000000
vn 0.641700 0.767000 0.000000
vn 0.908800 -0.417200 -0.000000
vn 0.397500 -0.762000 0.511300
vn 0.397500 0.762000 0.511300
vn 0.559300 -0.411800 0.719400
vn 0.613800 -0.000000 0.789500
vn 0.559300 0.411800 0.719400
vn -0.217200 -0.000000 0.976100
vn -0.198200 0.408900 0.890800
vn -0.141400 -0.759300 0.635300
vn -0.141400 0.759300 0.635300
vn -0.198200 -0.408900 0.890800
vn -0.577000 0.765400 0.285000
vn -0.815500 -0.415500 0.402800
vn -0.209800 -0.972200 -0.103600
vn -0.815500 0.415500 -0.402800
vn -0.577000 -0.765400 -0.285000
vn -0.577000 0.765400 -0.285000
vn -0.815500 -0.415500 -0.402800
vn -0.209700 0.972300 -0.103600
vn -0.896600 0.000000 -0.442900
vn -0.051700 0.971200 -0.232500
vn -0.051800 -0.971200 -0.232600
vn 0.145100 0.971700 -0.186600
vn 0.145100 -0.971700 -0.186600
vn 0.232900 -0.972500 -0.000000
vn 0.232900 0.972500 0.000000
vn 0.145100 0.971700 0.186600
vn 0.145100 -0.971700 0.186600
vn -0.051700 0.971200 0.232500
vn -0.051800 -0.971200 0.232600
vn -0.815500 0.415500 0.402800
vn -0.577000 -0.765400 0.285000
vn -0.209700 0.972300 0.103600
vn -0.896600 -0.000000 0.442900
vn -0.209800 -0.972200 0.103600
s off
f 2/1/1 3/2/1 4/3/1
f 5/4/2 6/5/2 7/6/2
f 9/7/3 10/8/3 3/9/3
f 6/10/4 11/11/4 12/12/4
f 11/11/5 1/13/5 4/3/5
f 3/9/6 10/8/6 13/14/6
f 12/15/7 15/16/7 16/17/7
f 4/18/8 17/19/8 15/16/8
f 4/18/9 3/20/9 14/21/9
f 7/6/10 16/22/10 18/23/10
f 17/19/11 19/24/11 20/25/11
f 14/21/12 21/26/12 19/24/12
f 16/22/13 22/27/13 23/28/13
f 13/14/14 24/29/14 21/30/14
f 15/16/15 20/25/15 22/31/15
f 23/28/16 22/27/16 25/32/16
f 24/29/17 27/33/17 28/34/17
f 22/31/18 20/25/18 29/35/18
f 20/25/19 19/24/19 30/36/19
f 21/26/20 28/37/20 30/36/20
f 30/3/21 31/38/21 32/39/21
f 30/3/22 28/40/22 33/41/22
f 25/32/23 34/42/23 35/43/23
f 28/34/24 27/33/24 36/44/24
f 29/12/25 32/39/25 34/45/25
f 33/46/26 36/44/26 37/47/26
f 32/39/27 39/48/27 40/49/27
f 41/50/28 42/51/28 5/4/28
f 1/13/29 43/36/29 38/52/29
f 42/51/30 40/53/30 6/5/30
f 37/47/31 9/7/31 2/54/31
f 40/55/32 39/35/32 11/11/32
f 37/47/33 44/56/33 9/7/33
f 11/11/34 39/35/34 43/36/34
f 9/7/35 44/56/35 10/8/35
f 41/50/36 5/4/36 8/57/36
f 10/8/37 44/56/37 13/14/37
f 41/50/38 8/57/38 18/23/38
f 41/50/39 18/23/39 23/28/39
f 13/14/40 44/56/40 24/29/40
f 24/29/41 44/56/41 27/33/41
f 41/50/42 23/28/42 26/58/42
f 27/33/43 44/56/43 36/44/43
f 41/50/44 26/58/44 35/43/44
f 31/38/45 33/41/45 38/59/45
f 34/42/46 40/53/46 42/51/46
f 36/44/47 44/56/47 37/47/47
f 32/39/48 31/38/48 45/60/48
f 41/50/49 35/43/49 42/51/49
f 1/13/1 2/1/1 4/3/1
f 8/57/2 5/4/2 7/6/2
f 2/54/3 9/7/3 3/9/3
f 7/61/4 6/10/4 12/12/4
f 12/12/5 11/11/5 4/3/5
f 14/62/6 3/9/6 13/14/6
f 7/63/7 12/15/7 16/17/7
f 12/15/8 4/18/8 15/16/8
f 17/19/9 4/18/9 14/21/9
f 8/57/10 7/6/10 18/23/10
f 15/16/11 17/19/11 20/25/11
f 17/19/12 14/21/12 19/24/12
f 18/23/13 16/22/13 23/28/13
f 14/62/14 13/14/14 21/30/14
f 16/17/15 15/16/15 22/31/15
f 26/58/16 23/28/16 25/32/16
f 21/30/17 24/29/17 28/34/17
f 25/64/18 22/31/18 29/35/18
f 29/35/19 20/25/19 30/36/19
f 19/24/20 21/26/20 30/36/20
f 29/12/21 30/3/21 32/39/21
f 31/38/22 30/3/22 33/41/22
f 26/58/23 25/32/23 35/43/23
f 33/46/24 28/34/24 36/44/24
f 25/65/25 29/12/25 34/45/25
f 38/66/26 33/46/26 37/47/26
f 34/45/27 32/39/27 40/49/27
f 2/1/29 1/13/29 38/52/29
f 5/4/30 42/51/30 6/5/30
f 38/66/31 37/47/31 2/54/31
f 6/10/32 40/55/32 11/11/32
f 1/13/34 11/11/34 43/36/34
f 45/60/45 31/38/45 38/59/45
f 35/43/46 34/42/46 42/51/46
f 39/48/48 32/39/48 45/60/48
